<svg width="529" height="75" viewBox="0 0 529 75" fill="none" xmlns="http://www.w3.org/2000/svg">
<circle cx="30" cy="30" r="28.5" stroke="url(#paint0_linear_103_2)" stroke-width="3"/>
<mask id="mask0_103_2" style="mask-type:alpha" maskUnits="userSpaceOnUse" x="8" y="20" width="45" height="20">
<line x1="14.75" y1="26.75" x2="14.75" y2="33.2" stroke="black" stroke-width="3" stroke-linecap="round"/>
<line x1="51.5" y1="26.75" x2="51.5" y2="33.2" stroke="black" stroke-width="3" stroke-linecap="round"/>
<line x1="45.2" y1="26.75" x2="45.2" y2="33.2" stroke="black" stroke-width="3" stroke-linecap="round"/>
<line x1="9.5" y1="26.75" x2="9.5" y2="33.2" stroke="black" stroke-width="3" stroke-linecap="round"/>
<line x1="21.05" y1="25.7" x2="21.05" y2="35.2999" stroke="black" stroke-width="3" stroke-linecap="round"/>
<line x1="38.9" y1="25.7" x2="38.9" y2="35.2999" stroke="black" stroke-width="3" stroke-linecap="round"/>
<line x1="27.35" y1="21.5" x2="27.35" y2="38.45" stroke="black" stroke-width="3" stroke-linecap="round"/>
<line x1="33.65" y1="21.5" x2="33.65" y2="38.45" stroke="black" stroke-width="3" stroke-linecap="round"/>
</mask>
<g mask="url(#mask0_103_2)">
<rect x="3" y="18" width="54" height="24" fill="url(#paint1_linear_103_2)"/>
</g>
<path d="M77.94 40.21C76.56 40.21 75.32 39.97 74.22 39.49C73.14 38.99 72.29 38.31 71.67 37.45C71.05 36.57 70.73 35.56 70.71 34.42H73.62C73.72 35.4 74.12 36.23 74.82 36.91C75.54 37.57 76.58 37.9 77.94 37.9C79.24 37.9 80.26 37.58 81 36.94C81.76 36.28 82.14 35.44 82.14 34.42C82.14 33.62 81.92 32.97 81.48 32.47C81.04 31.97 80.49 31.59 79.83 31.33C79.17 31.07 78.28 30.79 77.16 30.49C75.78 30.13 74.67 29.77 73.83 29.41C73.01 29.05 72.3 28.49 71.7 27.73C71.12 26.95 70.83 25.91 70.83 24.61C70.83 23.47 71.12 22.46 71.7 21.58C72.28 20.7 73.09 20.02 74.13 19.54C75.19 19.06 76.4 18.82 77.76 18.82C79.72 18.82 81.32 19.31 82.56 20.29C83.82 21.27 84.53 22.57 84.69 24.19H81.69C81.59 23.39 81.17 22.69 80.43 22.09C79.69 21.47 78.71 21.16 77.49 21.16C76.35 21.16 75.42 21.46 74.7 22.06C73.98 22.64 73.62 23.46 73.62 24.52C73.62 25.28 73.83 25.9 74.25 26.38C74.69 26.86 75.22 27.23 75.84 27.49C76.48 27.73 77.37 28.01 78.51 28.33C79.89 28.71 81 29.09 81.84 29.47C82.68 29.83 83.4 30.4 84 31.18C84.6 31.94 84.9 32.98 84.9 34.3C84.9 35.32 84.63 36.28 84.09 37.18C83.55 38.08 82.75 38.81 81.69 39.37C80.63 39.93 79.38 40.21 77.94 40.21ZM96.0874 40.27C94.5474 40.27 93.1474 39.92 91.8874 39.22C90.6474 38.52 89.6674 37.53 88.9474 36.25C88.2474 34.95 87.8974 33.45 87.8974 31.75C87.8974 30.07 88.2574 28.59 88.9774 27.31C89.7174 26.01 90.7174 25.02 91.9774 24.34C93.2374 23.64 94.6474 23.29 96.2074 23.29C97.7674 23.29 99.1774 23.64 100.437 24.34C101.697 25.02 102.687 26 103.407 27.28C104.147 28.56 104.517 30.05 104.517 31.75C104.517 33.45 104.137 34.95 103.377 36.25C102.637 37.53 101.627 38.52 100.347 39.22C99.0674 39.92 97.6474 40.27 96.0874 40.27ZM96.0874 37.87C97.0674 37.87 97.9874 37.64 98.8474 37.18C99.7074 36.72 100.397 36.03 100.917 35.11C101.457 34.19 101.727 33.07 101.727 31.75C101.727 30.43 101.467 29.31 100.947 28.39C100.427 27.47 99.7474 26.79 98.9074 26.35C98.0674 25.89 97.1574 25.66 96.1774 25.66C95.1774 25.66 94.2574 25.89 93.4174 26.35C92.5974 26.79 91.9374 27.47 91.4374 28.39C90.9374 29.31 90.6874 30.43 90.6874 31.75C90.6874 33.09 90.9274 34.22 91.4074 35.14C91.9074 36.06 92.5674 36.75 93.3874 37.21C94.2074 37.65 95.1074 37.87 96.0874 37.87ZM122.687 23.56V40H119.957V37.57C119.437 38.41 118.707 39.07 117.767 39.55C116.847 40.01 115.827 40.24 114.707 40.24C113.427 40.24 112.277 39.98 111.257 39.46C110.237 38.92 109.427 38.12 108.827 37.06C108.247 36 107.957 34.71 107.957 33.19V23.56H110.657V32.83C110.657 34.45 111.067 35.7 111.887 36.58C112.707 37.44 113.827 37.87 115.247 37.87C116.707 37.87 117.857 37.42 118.697 36.52C119.537 35.62 119.957 34.31 119.957 32.59V23.56H122.687ZM135.306 23.26C137.306 23.26 138.926 23.87 140.166 25.09C141.406 26.29 142.026 28.03 142.026 30.31V40H139.326V30.7C139.326 29.06 138.916 27.81 138.096 26.95C137.276 26.07 136.156 25.63 134.736 25.63C133.296 25.63 132.146 26.08 131.286 26.98C130.446 27.88 130.026 29.19 130.026 30.91V40H127.296V23.56H130.026V25.9C130.566 25.06 131.296 24.41 132.216 23.95C133.156 23.49 134.186 23.26 135.306 23.26ZM145.466 31.72C145.466 30.04 145.806 28.57 146.486 27.31C147.166 26.03 148.096 25.04 149.276 24.34C150.476 23.64 151.816 23.29 153.296 23.29C154.576 23.29 155.766 23.59 156.866 24.19C157.966 24.77 158.806 25.54 159.386 26.5V17.8H162.146V40H159.386V36.91C158.846 37.89 158.046 38.7 156.986 39.34C155.926 39.96 154.686 40.27 153.266 40.27C151.806 40.27 150.476 39.91 149.276 39.19C148.096 38.47 147.166 37.46 146.486 36.16C145.806 34.86 145.466 33.38 145.466 31.72ZM159.386 31.75C159.386 30.51 159.136 29.43 158.636 28.51C158.136 27.59 157.456 26.89 156.596 26.41C155.756 25.91 154.826 25.66 153.806 25.66C152.786 25.66 151.856 25.9 151.016 26.38C150.176 26.86 149.506 27.56 149.006 28.48C148.506 29.4 148.256 30.48 148.256 31.72C148.256 32.98 148.506 34.08 149.006 35.02C149.506 35.94 150.176 36.65 151.016 37.15C151.856 37.63 152.786 37.87 153.806 37.87C154.826 37.87 155.756 37.63 156.596 37.15C157.456 36.65 158.136 35.94 158.636 35.02C159.136 34.08 159.386 32.99 159.386 31.75ZM188.659 23.56L183.529 40H180.709L176.749 26.95L172.789 40H169.969L164.809 23.56H167.599L171.379 37.36L175.459 23.56H178.249L182.239 37.39L185.959 23.56H188.659ZM190.349 31.72C190.349 30.04 190.689 28.57 191.369 27.31C192.049 26.03 192.979 25.04 194.159 24.34C195.359 23.64 196.689 23.29 198.149 23.29C199.589 23.29 200.839 23.6 201.899 24.22C202.959 24.84 203.749 25.62 204.269 26.56V23.56H207.029V40H204.269V36.94C203.729 37.9 202.919 38.7 201.839 39.34C200.779 39.96 199.539 40.27 198.119 40.27C196.659 40.27 195.339 39.91 194.159 39.19C192.979 38.47 192.049 37.46 191.369 36.16C190.689 34.86 190.349 33.38 190.349 31.72ZM204.269 31.75C204.269 30.51 204.019 29.43 203.519 28.51C203.019 27.59 202.339 26.89 201.479 26.41C200.639 25.91 199.709 25.66 198.689 25.66C197.669 25.66 196.739 25.9 195.899 26.38C195.059 26.86 194.389 27.56 193.889 28.48C193.389 29.4 193.139 30.48 193.139 31.72C193.139 32.98 193.389 34.08 193.889 35.02C194.389 35.94 195.059 36.65 195.899 37.15C196.739 37.63 197.669 37.87 198.689 37.87C199.709 37.87 200.639 37.63 201.479 37.15C202.339 36.65 203.019 35.94 203.519 35.02C204.019 34.08 204.269 32.99 204.269 31.75ZM217.762 37.48L222.862 23.56H225.772L219.322 40H216.142L209.692 23.56H212.632L217.762 37.48ZM243.458 31.15C243.458 31.67 243.428 32.22 243.368 32.8H230.228C230.328 34.42 230.878 35.69 231.878 36.61C232.898 37.51 234.128 37.96 235.568 37.96C236.748 37.96 237.728 37.69 238.508 37.15C239.308 36.59 239.868 35.85 240.188 34.93H243.128C242.688 36.51 241.808 37.8 240.488 38.8C239.168 39.78 237.528 40.27 235.568 40.27C234.008 40.27 232.608 39.92 231.368 39.22C230.148 38.52 229.188 37.53 228.488 36.25C227.788 34.95 227.438 33.45 227.438 31.75C227.438 30.05 227.778 28.56 228.458 27.28C229.138 26 230.088 25.02 231.308 24.34C232.548 23.64 233.968 23.29 235.568 23.29C237.128 23.29 238.508 23.63 239.708 24.31C240.908 24.99 241.828 25.93 242.468 27.13C243.128 28.31 243.458 29.65 243.458 31.15ZM240.638 30.58C240.638 29.54 240.408 28.65 239.948 27.91C239.488 27.15 238.858 26.58 238.058 26.2C237.278 25.8 236.408 25.6 235.448 25.6C234.068 25.6 232.888 26.04 231.908 26.92C230.948 27.8 230.398 29.02 230.258 30.58H240.638Z" fill="white"/>
<defs>
<linearGradient id="paint0_linear_103_2" x1="30" y1="0" x2="30" y2="60" gradientUnits="userSpaceOnUse">
<stop stop-color="#1762A7"/>
<stop offset="1" stop-color="#BC3A80"/>
</linearGradient>
<linearGradient id="paint1_linear_103_2" x1="30" y1="18" x2="30" y2="42" gradientUnits="userSpaceOnUse">
<stop stop-color="#1762A7"/>
<stop offset="1" stop-color="#BC3A80"/>
</linearGradient>
</defs>
</svg>
